<svg
   xmlns:dc="http://purl.org/dc/elements/1.1/"
   xmlns:cc="http://creativecommons.org/ns#"
   xmlns:rdf="http://www.w3.org/1999/02/22-rdf-syntax-ns#"
   xmlns:svg="http://www.w3.org/2000/svg"
   xmlns="http://www.w3.org/2000/svg"
   id="svg8"
   version="1.1"
   viewBox="0 0 1068.6 286.4"
   class="home-icon" >
  <path
     id="path1087"
     d="m 294.78,1.3229 -6.1,0.43 c -12.61,0.93 -19.28,7.53 -20.17,20.0701 l -0.43,6.14 -3.63,0.33 -3.63,0.33 v 0.47 h -0.43 v 5.74 3.99 1.72 h 3.96 3.99 v 28.22 28.26 h 7.5 7.49 v -28.26 -28.06 h 6.17 6.17 v -0.33 -6.17 -6.2 h -6.3 -6.08 v -2.61 l 0.33,-2.38 c 0.4,-4.52 2.05,-7.36 4.92,-8.51 0,0 0.37,0 0.57,-0.33 h 0.33 c 0.75,-0.33 1.55,-0.33 2.44,-0.33 h 3.04 v -6.3101 z m 20.01,0.14 0.1,0.19 c -4.39,0 -8.65,3.27 -8.65,8.8501 0,4.49 1.09,6.63 4.23,8.42 0.59,0.33 1.35,0.59 2.11,0.76 0.99,0.33 1.95,0.33 2.84,0 2.24,0 4.52,-0.73 5.81,-1.92 2.6,-2.37 3.59,-7.13 2.17,-10.5301 -1.68,-4.03 -5.18,-5.87 -8.61,-5.77 z m -73.94,0.16 h 0 c -4.13,0 -8.79,4.92 -8.79,9.2801 0,2.54 0.66,3.93 3.01,6.27 2.18,2.18 3.57,2.91 5.84,2.97 h 0.43 c 4.29,0 9.24,-4.65 9.24,-8.71 0,-5.9101 -3.89,-9.8401 -9.77,-9.8401 z m 481.16,3.4 -3.43,0.33 h -3.27 -7.52 v 45.9201 45.88 h 0.33 0.76 6.56 6.57 0.33 0.6 v -22.02 c 0,-11.58 0.33,-20.26 0.69,-23.4 0.5,-1.75 1.09,-3.1 1.92,-4.29 l 0.33,-0.33 c 0.33,-0.33 0.32,-0.46 0.52,-0.69 6.84,-8.26 21.99,-7.99 27.57,2.08 2.14,3.89 2.18,4.42 2.51,26.27 l 0.33,22.28 h 0.33 6.63 6.6 0.99 v -21.59 c 0,-12.51 -0.33,-20.2 -1.02,-25.58 v -2.8 l -1.22,-2.51 c -0.7,-1.95 -1.59,-3.54 -2.71,-5.12 -5.91,-9.37 -16.54,-13.63 -28.78,-11.32 -3.8,0.72 -7.33,2.11 -10.17,3.99 l -4.32,2.94 v -14.95 -14.9601 h -0.8 z m -703.716,5.2201 -15.6499,0.16 v 1.03 42.81 42.81 h 7.02 7.0699 v -0.33 h 0.9 v -17.23 -16.73 l 10.43,-0.5 c 5.08,0 11.12,-0.46 13.73,-0.99 14.53,-2.91 23.49,-15.52 20.95,-29.35 -1.12,-5.94 -2.57,-8.87 -6.4,-12.74 -7,-7.09 -14.81,-8.94 -38.05,-8.94 z m 484.966,0.16 v 0.76 h -0.33 v 27.63 3.17 l -0.33,31.56 -20.73,-31.53 -20.73,-31.49 h -7.3 -7.29 v 0.69 42.55 0.33 42.82 h 0.43 v 0.39 h 7.52 7.49 v -31.12 -31.1 l 20.5,31.06 20.5,31.06 h 7.73 7.76 l -0.33,-43.01 -0.33,-43.04 -7.3,-0.33 z m 175.68,0.56 -7.27,0.33 -7.29,0.33 -0.33,8.12 -0.33,8.09 -3.73,0.33 -3.73,0.33 -0.33,5.94 -0.33,5.98 h 3.93 3.96 l 0.33,21.85 c 0.33,20.73 0.39,22.05 2.34,25.98 1.62,3.27 2.97,4.59 6.57,6.37 h 0.33 c 0.79,0.39 1.65,0.73 2.54,1.02 2.61,1.03 5.02,1.22 11.22,1.22 h 9.08 v -6.17 -6.17 h -6.43 c -10.5,0 -9.84,1.15 -10.17,-23.34 l -0.33,-20.8 h 8.48 8.49 l -0.33,-5.97 -0.33,-2.97 v -2.71 -0.33 l -8.19,-0.33 -8.15,-0.33 v -8.38 z m 355.46,0.33 v 0.83 7.56 0.82 7.56 h -4 -4 v 0.89 5.32 0.43 5.74 h 4 3.8 v 10.17 11.22 c 0,10.43 0.3,17.2 0.8,21.82 v 0.33 c 1.1,7 3.4,9.01 8.4,11.32 v 0.33 c 2.8,1.26 5.8,1.65 13.1,1.65 h 9.5 l -0.3,-5.97 -0.3,-5.94 -6.7,-0.33 c -10.1,-0.4 -9.7,0.69 -9.7,-23.67 v -20.57 l 8.2,-0.33 h 0.8 6.8 v -0.33 h 0.6 v -5.71 -5.74 l -8.2,-0.33 -8.2,-0.33 v -8.35 -8.35 h -7.5 z m -1016.766,11.46 h 5.44 l 5.39,0.33 c 9.3,0.33 11.24,0.59 13.95,2.27 3.96,2.48 5.22,5.22 5.22,11.36 0,6.37 -1.84,9.8 -6.43,11.88 -2.94,1.32 -5.82,1.69 -13.64,1.69 h -9.93 v -13.77 z m 632.086,4.22 -3.79,0.56 c -5.25,0.83 -12.81,4.66 -14.63,7.43 l -1.15,1.78 c 0,0 -0.33,0.33 -0.4,0.37 l -0.4,-4.2 -0.42,-4.39 h -7.07 -7.06 l -0.33,34.2 -0.33,34.2 h 7.46 7.46 l 0.33,-22.28 c 0.33,-18.95 0.49,-22.71 1.78,-25.02 2.21,-4.1 5.68,-5.91 12.18,-6.47 l 5.71,-0.5 v -0.69 h 0.36 v -6.93 -1.75 z m -280.3,0.27 0.26,0.13 c -2.08,0 -4.16,0.33 -6.27,0.53 -1.29,0.33 -2.57,0.53 -3.79,0.86 -1.13,0.33 -2.08,0.52 -3.11,0.95 -10.07,3.73 -16.87,11.39 -19.77,22.58 -5.58,21.36 6.14,41.99 25.88,45.49 10.96,1.98 22.74,-1.35 29.66,-8.32 3.96,-3.96 8.38,-11.22 8.38,-13.73 0,-0.56 -3.13,-0.89 -7.82,-0.89 h -7.84 l -1.12,2.67 c -2.48,6.04 -10.83,9.21 -19.84,7.53 -4.29,-0.83 -9.67,-5.88 -11.62,-10.93 -1.95,-4.98 -2.15,-16.64 -0.4,-21.65 1.29,-3.7 5.48,-8.92 8.42,-10.47 7.92,-4.29 20.47,-0.92 23.44,6.31 l 1.12,2.7 h 7.84 c 5.68,0 7.82,-0.33 7.82,-1.12 v -0.33 l -0.33,-0.33 c -0.53,-2.97 -4.65,-10.13 -7.66,-13.14 -5.66,-5.67 -14.27,-8.88 -23.25,-8.84 z m -181.32,0.1 h -0.2 c -12.63,0.33 -23.12,6.6 -28.74,17.92 -2.83,5.75 -3.26,7.53 -3.63,14.72 -0.46,9.28 0.89,16.02 4.49,22.16 4.52,7.72 12.35,13.46 20.87,15.28 6.33,1.45 8.33,1.48 14.6,0.33 12.12,-2.21 21.29,-10 24.66,-20.86 0.59,-1.99 0.49,-1.99 -7.2,-1.99 h -7.82 l -1.68,3.14 c 0,0.33 -0.33,0.43 -0.4,0.66 v 0.33 c -0.33,0.5 -0.66,0.96 -1.02,1.39 -0.33,0.33 -0.6,0.63 -0.89,0.92 -2.88,2.74 -7.07,4.23 -12.05,4.23 -6.03,0 -9.06,-1.19 -12.6,-4.99 -3.73,-4.02 -5.28,-8.02 -5.81,-14.88 v -2.71 -0.33 c -0.33,-14.06 6.67,-22.38 18.57,-22.38 6.34,0 11.95,2.97 14.46,7.62 l 1.69,3.17 h 7.82 c 7.69,0 7.79,0 7.19,-2.01 -0.46,-1.49 -0.99,-2.87 -1.61,-4.23 -0.73,-1.74 -1.75,-3.5 -3.04,-5.15 -0.33,-0.33 -0.33,-0.46 -0.5,-0.69 l -0.32,-0.33 c -1.79,-2.21 -3.87,-4.13 -6.25,-5.71 -2.54,-1.78 -5.34,-3.23 -8.21,-4.09 -1.49,-0.46 -3.27,-0.8 -5.19,-0.99 -2.47,-0.43 -4.85,-0.6 -7.19,-0.56 z m -85.01,0 c -11.576,0.34 -22.716,7.11 -28.396,19.08 -2.08,4.45 -2.61,5.97 -2.71,11.22 -0.42,3.2 -0.42,6.54 0,9.9 0.34,4.66 0.71,6.9 1.99,10.14 3.82,9.54 13.8,18.12 23.41,20.07 8.676,1.81 19.726,-1.12 26.426,-7 l 3.25,-2.87 v 4.02 4.99 h 0.84 6.65 6.59 0.93 l -0.33,-34.2 -0.34,-34.2 h -7.06 -7.06 v 0.43 h -0.43 v 3.73 0.7 c -0.33,2.67 -0.56,4.39 -0.66,3.83 0,-0.56 -2.51,-2.61 -5.42,-4.56 -5.53,-3.71 -11.66,-5.39 -17.66,-5.28 z m 463.05,0 c -13.57,0 -26.27,7.59 -32.05,19.94 -2.05,4.55 -2.38,5.97 -2.38,15.61 0,10.2 0,10.83 2.91,16.51 4.65,9.47 12.67,15.67 23.14,18.02 6.17,1.35 7.26,1.35 13.47,0.36 11.91,-1.95 22.04,-9.51 26.86,-20.04 3.34,-7.29 3.87,-18.88 1.19,-26.7 -4.45,-13.14 -13.5,-20.83 -27.3,-23.17 -1.94,-0.33 -3.89,-0.5 -5.84,-0.53 z m 352.84,0 c -4.42,0 -8.94,0.86 -13.4,2.51 -3.6,1.32 -7.49,4.19 -10.83,7.66 l -0.33,0.33 c -2.9,3.13 -5.34,6.7 -6.57,10.06 -5.15,13.7 -2.47,30.04 6.51,40.01 3.79,4.19 10.96,8.12 17.23,9.51 6.27,1.45 8.28,1.52 14.56,0.33 10.49,-1.92 17.72,-7.07 22.41,-15.71 l 2.84,-5.39 h -0.89 -7.33 -7.23 l -0.33,0.4 c -1.22,0.33 -1.62,0.99 -2.38,2.31 -2.37,3.93 -7.39,6.18 -13.93,6.18 -3,0 -6.63,-0.6 -8.22,-1.36 -4.42,-2.04 -8.38,-6.73 -9.8,-11.29 l -0.99,-3.33 c 0,-0.33 0.39,-0.6 0.86,-0.79 h 24.85 25.95 l 0.33,-0.9 h 0.33 v -1.18 l 0.33,-1.22 c 0.63,-3.4 0,-9.78 -1.49,-15.02 -0.52,-2.15 -1.22,-4.07 -2.17,-5.88 -5.58,-10.93 -17.34,-17.17 -30.18,-16.97 z m 70.81,0.33 c -15.71,0 -26.05,7.89 -26.05,19.71 0,5.38 1.16,8.61 4.26,11.88 3.34,3.46 5.98,4.72 19.58,9.14 6.53,2.12 12.52,4.49 13.42,5.28 0.9,0.83 1.6,2.64 1.6,4.33 0,4.92 -3.9,7.43 -11.66,7.43 -6.17,0 -10.33,-2.18 -12.11,-6.34 l -1.39,-3.37 h -7.59 -7.69 l 0.56,2.58 c 0,0.72 0.33,1.58 0.6,2.51 1.15,4.25 2.9,6.93 6.27,9.93 3.79,3.27 9.24,5.91 14.72,7.07 4.59,0.99 13.76,0.36 18.39,-1.26 15.4,-5.32 19.7,-22.51 8.2,-32.15 -2.5,-2.05 -6.9,-3.93 -15.9,-6.77 -13.43,-4.29 -16.24,-6.11 -16.24,-10.73 0,-3.99 4.16,-6.66 9.87,-6.8 h 0.56 c 1.23,0 2.48,0 3.77,0.37 3.63,0.66 7.54,3.89 8.44,6.73 v 0.33 c 0,0.46 0,0.83 0.3,1.09 0,1.48 1,1.52 7.5,1.52 8.5,0 8.3,0.33 6.1,-6.97 -2.9,-9.93 -12.2,-15.48 -25.51,-15.48 z m -681.77,0.33 v 0.89 33.54 0.39 33.91 h 7.07 7.06 v -33.91 -34 -0.82 h -7.06 z m 557.85,0 -0.79,2.87 c -0.43,1.58 -3.53,13.47 -6.9,26.44 -3.34,12.94 -6.27,23.08 -6.6,22.51 -0.37,-0.59 -3.17,-11.58 -6.44,-24.46 -3.27,-12.87 -6.27,-24.29 -6.7,-25.38 0,-0.33 -0.33,-0.33 -0.33,-0.46 l -0.33,-0.89 h -0.53 c -0.92,-0.6 -2.64,-0.7 -7.13,-0.47 l -7.3,0.33 -6.86,26.05 c -2.38,8.98 -4.46,16.74 -5.78,21.62 -0.72,2.34 -1.28,3.86 -1.61,4.56 -0.83,-2.41 -3.41,-11.89 -6.41,-23.48 -3.5,-13.69 -6.73,-25.84 -7.19,-27.03 0,-0.33 -0.33,-0.56 -0.33,-0.79 v -0.6 h -0.33 c -0.8,-0.79 -2.38,-0.79 -7.17,-0.79 -3.89,0 -7.06,0.33 -7.06,0.7 0,0.59 19.67,64.33 20.69,67.07 l 0.33,0.33 v 0.4 h 2.02 c 1.32,0 3.2,0.33 5.71,0.33 h 7.72 l 6.6,-24.4 c 3.67,-13.4 6.67,-23.83 7,-23.14 0.33,0.66 3.17,11.52 6.64,24.13 l 6.34,22.98 h 0.46 v 0.43 h 7.39 7.4 v -0.43 h 0.33 l 10.43,-33.11 c 5.64,-18.22 10.33,-33.6 10.33,-34.2 0,-0.79 -1.88,-1.12 -7,-1.12 z m -631.56,0.46 -0.33,34.2 -0.33,34.2 h 7.53 7.52 l -0.33,-34.2 -0.33,-34.2 h -7.06 z m 684.08,11.49 0.16,0.1 c 9.35,0 18.72,6.04 18.72,14.49 0,1.71 -0.79,1.71 -18.19,1.71 h -18.25 l 0.62,-2.77 c 0.33,-1.55 0.9,-3.1 1.69,-4.52 0.33,-0.33 0.33,-0.46 0.43,-0.69 v -0.33 c 0.33,-0.43 0.59,-0.86 0.89,-1.29 0,-0.33 0.33,-0.4 0.49,-0.59 0,0 0.33,-0.34 0.33,-0.4 1.19,-1.29 2.58,-2.41 4.13,-3.3 2.77,-1.62 5.87,-2.35 8.98,-2.41 z m -812.83,0.23 v 0.23 c 3.2,0 6.5,0.6 9.77,2.11 15.28,7.13 15.54,32.48 0.4,40.41 -1.98,0.99 -3.84,1.68 -5.65,2.04 -1.78,0.33 -3.67,0.33 -5.48,0 -2.11,-0.33 -4.29,-1.02 -6.596,-2.17 -13.41,-6.67 -15.62,-28.46 -3.83,-38.16 3.37,-2.81 7.286,-4.29 11.386,-4.46 z m 460.98,0.23 c 4.69,0 8.58,1.49 12.08,4.56 9.31,8.15 9.44,24.72 1.88,33.6 -0.66,0.76 -1.35,1.45 -2.05,2.08 -0.99,0.82 -2.01,1.52 -3.16,2.11 -4.13,2.11 -12.19,2.97 -16.05,1.75 -3.96,-1.29 -8.42,-5.15 -10.46,-9.14 -2.28,-4.43 -3.17,-15.15 -1.72,-20.57 2.28,-8.32 8.62,-13.53 17.43,-14.29 h 2.05 z m -125.37,69.977 -1.82,2.74 c -1.06,1.85 -1.81,4.09 -1.45,6.77 v 1.09 c 0.4,2.64 0,2.74 -2.44,2.27 -1.49,-0.36 -4.43,0 -6.51,0.73 -3.3,1.06 -3.6,1.32 -2.28,2.34 0,0 0,0.37 0.4,0.37 0.69,0.49 1.55,0.82 2.48,1.02 2.61,0.99 3.63,0.79 8.35,-0.82 0.79,-0.4 1.48,-0.57 2.08,-0.86 3.6,-1.26 3.86,-1.69 3.5,-4.49 0,-1.06 0,-2.21 -0.6,-3.53 -0.36,-1.49 -0.59,-3.07 -0.89,-4.2 z m -335.04,0.93 c -0.1,0 -0.2,0.1 -0.3,0.14 z m -0.3,0.14 v 0 c 0,0 0,0 0,0 0,0 0,0 0,0 z m 0,0 c -0.22,0.22 -0.46,0.64 -0.82,1.31 -0.66,1.19 -1.05,3.96 -0.92,6.27 v 1.52 1.29 c 0,1.85 -0.53,1.81 -2.84,1.45 -3.596,-0.53 -8.646,2.31 -11.286,6.37 -2.18,3.3 -2.36,8.09 -0.71,10.99 0,0.37 0.32,0.73 0.42,1.06 0.59,1.09 1.69,1.95 2.48,1.95 h 0.55 c 1.59,0.39 2.28,-0.89 1.09,-3.17 -0.36,-0.63 -0.62,-1.32 -0.81,-1.95 0,-1.32 -0.33,-2.34 -0.33,-3.17 0.33,-1.38 0.75,-2.67 1.61,-3.73 0.33,-0.36 0.52,-0.43 0.85,-0.69 3.24,-2.58 6.966,-2.87 10.266,-1.06 0.49,0.37 1.03,0.83 1.69,1.39 0.73,0.63 1.34,1.12 1.94,1.55 1.25,1.12 2.32,1.82 2.55,1.52 v -0.4 c 0.73,0 0.49,-1.52 -0.87,-3.99 -1.12,-2.08 -2.03,-5.28 -2.03,-7.07 0,-1.81 -0.64,-5.34 -1.37,-7.82 -0.71,-2.44 -1.08,-3.53 -1.46,-3.62 z m 588.05,-0.17 c -0.4,0 -0.6,0.49 -1.13,1.48 -0.56,1.29 -1.28,4.29 -0.92,6.67 0.36,4.32 0.36,4.32 -2.67,3.86 -4.03,-0.63 -9.54,3.04 -11.95,8.02 -1.56,3.17 -1.65,4.36 -0.7,7.3 0,0.36 0.4,0.62 0.4,0.99 0.36,1.05 0.72,1.98 1.19,2.47 1.05,1.03 1.78,1.52 2.27,1.45 1.72,0.53 2.02,-1.05 0.96,-5.01 -0.92,-3.47 -0.89,-4.56 0.43,-6.64 0.4,-0.36 0.76,-0.72 1.35,-1.15 4.1,-3.27 9.02,-2.91 12.81,0.89 0.37,0.4 0.7,0.66 1.06,0.96 0.36,0.56 0.92,0.92 1.58,1.15 0.47,0.4 0.8,0.4 0.93,0.4 0.69,0 1.22,-0.4 1.22,-0.76 0,-0.43 -0.96,-2.25 -2.05,-4.06 -1.09,-1.85 -2.04,-4.79 -2.04,-6.57 0,-1.82 -0.6,-5.28 -1.36,-7.79 -0.72,-2.44 -1.05,-3.53 -1.45,-3.63 z m -551.89,0.39 c -1.71,0 -7.73,3.83 -7.73,4.95 0,0.53 -1.75,0.37 -3.93,-0.62 -3.4,-1.16 -4.32,-1.16 -6.83,0 -1.75,0.82 -2.84,2.21 -3.14,3.56 v 0.89 c -0.33,1.03 0.34,1.98 1.19,2.84 0.73,0.63 1.22,0.66 1.75,0 0.33,-0.36 0.56,-0.63 0.89,-1.29 0.86,-1.55 2.08,-2.18 3.31,-2.01 0.72,0.4 1.61,1.22 2.67,2.44 0.33,0 0.33,0.36 0.33,0.43 v 0.36 c 0.59,1.62 1.48,2.94 1.91,2.94 0.33,0 0.57,-0.36 1,-0.56 0.7,-0.36 1.97,-1.78 3.29,-3.46 1.79,-2.12 3.6,-4.66 4.56,-6.57 1.16,-2.28 1.35,-3.54 0.66,-3.54 z m 342.64,0 c -2.02,0 -5.38,1.75 -8.19,4.29 -1.62,1.49 -2.61,1.79 -3.56,1.03 -5.32,-4.3 -16.18,-0.6 -14.76,3.92 v 0.86 c 0.36,0.7 0.86,1.19 1.49,1.45 1.38,1.09 2.07,0.7 2.73,-1.35 0,0 0,-0.39 0.37,-0.46 0.39,-0.36 0.89,-0.73 1.45,-1.02 0.4,-0.37 0.79,-0.37 1.12,-0.5 h 1.29 c 0.69,0 1.49,0.63 2.54,1.42 2.58,1.88 3.21,1.95 7.17,0.83 2.7,-0.76 4.85,-2.15 5.54,-3.5 0.6,-1.23 1.92,-3.17 2.91,-4.26 1.32,-1.49 1.45,-1.95 0.56,-2.05 0,-0.36 0,-0.56 -0.66,-0.56 z m 245.29,0 c -1.85,0 -6.7,2.97 -7.26,4.46 -0.53,1.38 -1.02,1.38 -4.32,0 -3.47,-1.45 -4.1,-1.45 -7.17,0 -2.47,1.19 -3.63,2.94 -3.23,4.59 0,0.85 0.49,1.65 1.42,2.44 0.95,0.92 1.52,1.02 1.52,0.36 v -0.36 c 0.39,-0.4 0.56,-0.66 0.92,-1.29 0.36,-0.63 0.66,-1.05 1.09,-1.42 1.35,-0.89 3.07,-0.53 4.52,0.89 0.4,0.4 0.53,0.9 0.76,1.46 0.66,1.68 1.52,3 1.98,3.03 v 0.36 l 0.43,-0.42 c 1.92,-1.22 6.5,-6.9 8.32,-10.4 0.4,-0.66 0.49,-1.26 0.69,-1.78 0.37,-0.47 0.37,-0.83 0.37,-1.06 v -0.63 z m -321.55,13.4 c -2.47,0 -3.36,0.7 -5.9,3.11 -4.39,4.19 -7.43,9.9 -7.43,13.93 v 3.03 l 2.77,-2.61 c 6.57,-6.04 11.95,-6.63 21.89,-2.4 l 4.85,2.07 0.86,-0.62 2.34,-1.65 c 2.71,-1.79 10.27,-5.45 13.27,-6.54 h 1.09 c -0.4,0.73 -3.04,3.77 -6.5,7.36 -9.97,10.53 -11.65,16.54 -9.15,31.99 0.8,3.86 0.86,7.36 0.43,7.79 -0.43,0.56 -2.87,0.56 -5.44,0.56 -4.56,0 -4.89,0 -9.05,5.28 -2.38,3.01 -4.55,6.18 -4.95,7.07 -0.56,1.48 -0.36,1.55 1.78,0.39 1.42,-0.72 6.14,-1.35 11.06,-1.35 h 8.55 v 9.14 c 0,10.43 -2.11,18.26 -6.07,24.33 -2.21,3.43 -3.44,4.29 -6.8,4.85 -2.25,0.37 -5.55,1.52 -7.33,2.68 -2.94,1.81 -3.34,2.6 -3.93,8.38 -0.86,7.99 0,10.33 3.9,12.81 5.81,3.56 16.17,1.48 15.68,-2.74 l 0.69,-0.53 -1.02,-0.56 c -1.39,-1.95 -7,-1.95 -8.62,0 -1.75,2.15 -4.79,1.92 -6.01,-0.4 -0.39,-0.66 -0.62,-1.22 -0.76,-1.71 0,-0.96 0,-1.98 0.53,-2.91 0.36,-0.46 0.76,-0.89 1.35,-1.45 0.37,-0.4 0.57,-0.46 0.83,-0.69 2.05,-1.12 4.39,-1.46 7.59,-0.76 2.08,0.56 4.59,1.55 7.59,3.03 9.74,4.69 16.34,7.3 20.7,8.06 1.59,0.4 2.87,0.63 3.73,0.63 0.6,0 1.36,-0.57 2.02,-1.39 0.39,-0.4 0.69,-0.66 0.92,-1.12 0.69,-1.19 2.97,-4.46 5.12,-7.13 0,0 0,-0.37 0.36,-0.37 1.42,-1.68 2.51,-3.53 3.07,-5.11 0.36,-0.83 0.59,-1.52 0.59,-2.01 0,-2.94 0,-2.94 -4.26,-0.4 -4.42,2.74 -12.7,2.71 -21.09,0 -2.74,-0.93 -4.79,-1.68 -5.81,-2.05 -0.39,-0.39 -0.56,-0.46 -0.66,-0.66 0.69,-0.63 2.71,-2.11 5.12,-3.76 7.62,-5.28 16.14,-13.83 18.71,-18.85 2.74,-5.45 3.47,-13.14 1.99,-21.56 l -0.66,-3.82 c 0,-1.98 0.36,-3.4 1.61,-5.29 l 5.58,-6.17 c 4.29,-4.69 8.09,-8.48 8.48,-8.48 0.4,0 2.18,1.98 3.97,4.45 3.13,4.36 11.35,9.48 15.35,9.68 1.02,0.42 1.78,0.72 1.94,0.72 0,0.56 -0.62,1.59 -1.75,3.47 -3.13,5.41 -6.14,15.54 -6.14,20.76 0,3.04 1.85,10.3 5.09,19.91 5.97,17.79 6.9,23.8 4.72,29.11 -1.85,4.46 -5.38,5.74 -10.57,3.83 -4.85,-1.72 -6.07,0 -2.57,3.46 1.55,1.56 3.76,3.21 4.85,3.67 0.5,0.36 1.09,0.36 1.78,0.49 3.11,0.93 6.61,0.83 10.04,0 1.12,-0.39 2.18,-0.49 2.97,-0.85 2.38,-0.99 4.62,-2.68 6.6,-4.76 1.22,-1.12 2.28,-2.41 3.2,-3.79 1.39,-2.08 2.08,-3.5 2.45,-5.55 0.36,-0.96 0.59,-1.95 0.79,-2.94 1.12,-6 -0.6,-12.11 -7,-25.31 -5.74,-11.82 -8.55,-19.18 -9.01,-24.93 v -2.01 -0.6 c 0,-2.47 0.73,-4.75 1.78,-7.06 1.29,-2.77 3.4,-5.38 6.27,-7.69 0.7,-0.53 1.42,-1.02 2.15,-1.52 1.29,-0.82 2.51,-1.58 3.63,-2.28 h 0.4 c 1.55,-0.79 2.57,-1.35 3.13,-1.85 h 0.37 c 0.56,-0.36 0.72,-0.52 0.46,-1.02 0,-0.49 -0.37,-1.05 -0.73,-1.81 -0.59,-1.06 -1.95,-1.13 -4.29,-0.66 -7.33,1.35 -18.65,-5.19 -25.35,-14.73 -2.31,-3.26 -4.49,-6 -4.85,-6 -0.37,0 -6.28,5.97 -13.21,13.3 l -10.46,11.12 c -1.09,0.76 -1.85,1.03 -2.35,0.63 l -0.59,-3.89 c -0.4,-2.22 -0.56,-6.28 -0.53,-10.24 v -2.38 -1.81 c 0,-1.88 0.37,-3.4 0.37,-4.75 0.76,-5.12 2.47,-8.39 5.9,-12.48 l 2.78,-3.27 2.7,2.08 0.7,0.63 c 2.87,2.47 4.95,3.76 7.72,4.42 0.53,0.36 1.06,0.36 1.49,0.43 3.1,0.59 6.43,0.46 9.67,-0.36 3.66,-0.63 6.83,-2.05 9.64,-4.26 1.61,-1.19 3.04,-2.51 4.12,-4.03 1.32,-1.81 1.95,-2.71 1.69,-2.9 0.39,-1.03 -0.63,-0.96 -2.94,0.39 -6.74,3.3 -14.95,2.48 -19.21,-1.61 -0.37,-0.37 -0.4,-0.47 -0.66,-0.73 l -0.4,-0.4 c -0.36,-0.36 -0.49,-0.66 -0.66,-1.02 -0.56,-0.99 -1.25,-1.88 -1.91,-2.44 l -0.56,-0.83 -0.43,0.36 h -0.4 c -2.81,0 -13.37,6.48 -19.24,11.76 -11.23,10.06 -10.67,8.35 -11.23,43.83 -0.53,30.6 -0.53,30.87 -3.13,36.45 -4.46,9.47 -11.33,16.14 -14.73,14.26 -0.62,-0.4 -0.92,-0.63 -0.89,-0.93 l 2.08,-1.55 c 3.63,-1.88 6.87,-5.21 9.34,-9.64 1.06,-1.65 1.88,-3.33 2.35,-4.82 v -0.39 c 1.25,-3.9 1.45,-9.51 1.81,-35.42 l 0.47,-29.32 c 0.79,-4.42 2.27,-8.35 4.35,-11.88 1.22,-1.88 2.74,-3.93 4.23,-5.58 l 0.99,-0.99 c 0.36,-0.36 0.46,-0.49 0.69,-0.76 6.74,-6.17 4.46,-6.93 -7.82,-2.61 -11.09,4.13 -12.41,4.13 -21.76,0 -2.8,-1.22 -7.49,-2.41 -10.43,-2.77 -1.25,0 -2.24,-0.4 -3.03,-0.4 z m -275.49,3.96 c -2.58,0.4 -3.24,0.9 -3.63,2.71 -0.33,2.15 0,2.51 3.07,2.15 6.08,-0.47 7.95,0 10.46,2.54 3.33,3.17 3.23,6.63 0,9.7 -2.11,1.92 -3.6,2.31 -7.66,2.31 -6.17,-0.39 -9.77,-1.58 -17.26,-6.6 -1.65,-1.09 -3.33,-2.08 -4.71,-2.77 l -1.63,-1.19 -0.66,0.4 h -0.62 c -3.4,0 -12.156,5.08 -14.856,8.65 -4.13,5.41 -6.56,11.58 -6.56,16.9 0,12.28 7.68,19.27 34.806,31.39 19.48,8.68 28.36,15.84 29.55,24.33 0.33,1.22 0.33,2.47 0,3.79 v 0.63 0.73 c -0.8,4.12 -7.6,12.18 -13.31,15.68 l -2.46,1.55 c -0.76,0 -1.56,-0.36 -2.46,-0.76 l -3.76,-3.04 c -11.22,-9.14 -26,-14.98 -37.876,-14.98 -4.56,0 -7.33,0.69 -11.49,2.8 -4.79,2.41 -5.92,3.6 -8.79,9.21 -5.81,11.46 -4,19.64 5.31,24 0.89,0.43 1.8,0.76 2.65,1.05 1.19,0.43 2.37,0.73 3.53,0.93 3.66,0.69 7.14,0.43 9.88,-0.76 1.98,-0.76 3.53,-1.91 4.25,-3.43 1.32,-2.02 1.456,-3.11 0.66,-4.36 -0.39,-0.59 -0.73,-1.02 -1.19,-1.25 -0.53,-0.43 -1.19,-0.53 -1.92,0 -1.19,0 -2.97,0.59 -5.78,1.32 -3.92,1.02 -5.14,1.88 -5.38,3.56 -0.33,1.98 -0.62,2.08 -3.26,1.19 -4.2,-1.49 -8.02,-6.4 -8.02,-10.33 0,-3.34 1.22,-5.71 4.02,-7.53 1.88,-1.19 4.39,-2.11 7.59,-2.84 10.53,-1.68 25.356,3.01 34.796,11.46 l 4.52,4.02 -3.7,2.45 c -3.95,2.54 -4.82,4.62 -2.31,5.54 h 0.59 c 0.66,0.4 1.52,-0.36 3.27,-1.58 0.76,-0.53 1.6,-1.12 2.45,-1.85 0.33,-0.36 0.69,-0.56 1.02,-0.79 2.38,-1.75 5.41,-3.93 8.32,-5.94 11.22,-7.73 18.68,-13.94 23.34,-19.78 2.07,-2.31 3.66,-4.45 4.55,-6.1 2.28,-4.43 2.94,-12.15 1.45,-16.64 -1.65,-5.05 -8.05,-11.85 -14.65,-15.65 -2.91,-1.65 -10.24,-4.85 -16.27,-7.13 -14.09,-5.28 -21.63,-9.34 -27.83,-14.92 -6.136,-5.48 -7.926,-8.84 -7.926,-14.72 0,-3.33 0.63,-5.28 2.38,-7.3 l 0.886,-1.05 c 1.19,-0.76 2.58,-0.6 4.42,0.43 l 2.23,1.62 c 2.97,2.14 5.93,3.92 8.97,5.28 7.65,3.56 15.58,4.52 21.48,2.83 4.46,-1.02 7.17,-3.39 9.15,-7.75 3.86,-8.42 1.52,-14.86 -6.14,-16.94 -2.21,-0.56 -4,-1.48 -4,-2.11 0,-0.69 -1.48,-0.69 -3.26,-0.69 z m 587.87,0 c -2.51,0.4 -3.21,0.9 -3.6,2.55 v 1.09 c -0.37,1.32 0.39,1.48 3.6,1.02 h 1.12 c 7.99,-0.36 12.38,3.86 10.82,9.97 -0.89,3.46 -6.3,5.64 -11.91,4.82 -5.02,-0.76 -12.91,-4.46 -17.17,-8.02 -3.73,-3.17 -6.14,-3.17 -12.54,0 -11.16,5.54 -17.76,21.45 -12.87,31.09 2.47,5.05 6.33,8.98 13.73,13.47 4.59,2.87 10.36,5.81 17.46,8.98 6.01,2.67 10.86,4.95 14.76,7.1 0.36,0 0.59,0.36 0.85,0.46 10.9,6.14 15.16,11.45 15.95,18.65 0.49,4.39 -0.86,8.09 -4.49,12.21 -2.08,2.35 -10.63,9.41 -11.59,9.54 -0.53,-0.36 -2.8,-1.91 -5.35,-3.99 -6.43,-5.32 -18.51,-11.52 -26.3,-13.54 -9.64,-2.54 -17.14,-2.14 -23.64,1.19 -4.82,2.41 -5.91,3.57 -8.78,9.21 -3.99,7.86 -4.36,14.13 -1.09,18.78 1.32,2.08 3.37,3.8 6.04,5.15 0,0 0.36,0 0.36,0.37 0.4,0 0.6,0.39 0.89,0.39 0.47,0.36 0.87,0.37 1.33,0.53 h 0.36 c 0.59,0 1.19,0.36 1.78,0.53 3.83,1.05 7.53,1.05 10.5,0 1.35,-0.4 2.51,-0.83 3.46,-1.49 1.33,-0.95 2.08,-1.75 2.28,-3.03 1.49,-2.45 1.49,-2.91 0,-4.36 -1.19,-1.22 -2.11,-1.39 -3.5,-0.63 -1.05,0.53 -3.73,1.39 -5.97,1.85 -3.04,0.66 -3.96,1.42 -4.36,3.07 -0.36,1.98 -0.62,2.08 -3.27,1.19 -4.19,-1.49 -8.02,-6.4 -8.02,-10.33 0,-2.31 0.79,-4.26 2.15,-5.88 0.39,-0.4 0.43,-0.46 0.69,-0.69 1.49,-1.32 3.3,-2.35 5.32,-3.07 7.03,-2.28 17.59,-1.19 27.66,3.86 4.49,2.28 9.7,5.55 11.62,7.29 l 3.43,3.21 -2.94,2.34 c -1.61,1.32 -3.3,2.38 -3.69,2.38 -0.4,0 -0.76,0.72 -0.76,1.55 0,1.39 0.66,2.04 1.78,2.04 0.63,0.4 1.39,0 3.04,-1.22 0.52,-0.36 1.05,-0.69 1.65,-1.18 1.88,-1.69 8.12,-6.24 13.86,-10.14 17.46,-11.92 25.25,-20.89 26.67,-31.03 v -0.95 -0.37 c 0.43,-4.65 0,-6.67 -1.55,-9.83 -4.69,-9.08 -10.99,-13.34 -31.06,-21.16 -18.85,-7.4 -27.2,-12.88 -33.14,-21.72 -2.02,-3.04 -2.21,-8.52 -0.73,-12.28 1.32,-2.48 3.14,-4.59 4.13,-4.59 0.36,0 1.02,0.46 2.14,1.12 l 3.44,2.34 c 5.11,3.5 9.54,5.75 13.96,7 4.03,1.29 7.92,1.75 11.75,1.42 1.02,0 2.05,-0.39 3.1,-0.49 0.56,0 1.12,-0.4 1.65,-0.4 1.55,-0.36 2.87,-0.86 3.6,-1.35 0.36,-0.37 0.73,-0.56 1.09,-0.99 1.52,-1.29 2.74,-2.98 3.76,-5.22 0.7,-1.59 1.19,-3.14 1.49,-4.52 0.39,-0.96 0.46,-1.79 0.46,-2.41 0,-0.5 0,-1.03 -0.36,-1.59 -0.43,-4.12 -3.14,-7.13 -7.92,-8.41 -2.18,-0.57 -3.96,-1.55 -3.96,-2.12 0,-0.72 -1.49,-0.72 -3.31,-0.72 z m -597.12,3.04 c -0.46,0 -1.02,0 -1.75,0.37 -7.23,1.55 -8.83,4.25 -2.23,3.66 h 1.14 c 1.59,0 2.97,0.73 4.23,1.72 0.39,0.36 0.76,0.62 1.15,1.05 0.34,0.36 0.57,0.6 0.83,0.89 0.66,0.86 1.26,1.79 1.83,2.87 0,0.4 0.32,0.4 0.35,0.63 v 0.36 c 0,0.99 0.6,1.52 1.3,1.56 0.62,0.49 1.11,0.39 1.37,-0.5 0.33,-0.36 0.6,-0.59 0.76,-1.06 1.19,-3.13 0.57,-4.55 -2.46,-5.64 -1.79,-0.63 -3.55,-2.18 -4.07,-3.56 -0.63,-1.62 -1.06,-2.15 -2.48,-2.08 z m 589.23,0 c -0.6,0 -1.46,0 -2.74,0.37 -7.07,1.32 -10.14,4.78 -3.34,3.79 1.55,-0.4 3.14,0 4.59,0.73 2.05,1.02 3.76,2.9 5.22,5.67 1.32,2.58 2.37,3.27 2.97,2.18 0.39,-0.39 0.59,-0.69 0.79,-1.32 0.96,-2.47 0.73,-3.83 -1.09,-4.98 h -0.36 c -0.46,-0.4 -0.99,-0.6 -1.62,-0.86 -2.51,-1.06 -3.57,-2.15 -3.57,-3.66 0,-1.23 0,-1.79 -1.05,-1.82 z m -217.04,11.65 0.12,0.17 c 0,-0.1 0,-0.17 -0.12,-0.17 z m 0.12,0.17 c 0,0 0,0.1 0,0.11 0,0 0,0 0.1,0 z m 0,0.11 c -1.12,0.1 -8.3,3.3 -9.41,4.21 -1.25,1.06 0.37,3.93 4.33,8.62 1.68,2.15 3.36,4.09 4.32,4.62 0.36,0.36 0.63,0.36 0.86,0.36 1.88,1.06 2.77,0 1.98,-3.07 -0.69,-2.6 -2.51,-4.82 -5.51,-6.73 -0.76,-0.53 -1.13,-0.86 -1.03,-1.16 v -0.36 c 0,0 0.37,0 0.4,-0.39 1.06,-0.44 3.92,-4.93 4.06,-6.1 z m -147.84,4.71 0.33,0.13 c -0.52,0 -1.25,0 -2.17,0.4 -6.47,0.85 -11.46,3.86 -11.85,7.06 v 0.36 c 0,4.29 3.66,10.93 9.14,15.85 l 4.46,3.99 v 0.76 l -4.72,2.08 -5.12,2.28 0.73,6.07 c 1.12,8.02 1.08,20.77 0,28.46 l -0.83,6.27 1.82,0.49 c 0.89,0.43 2.17,0.8 4.12,1.42 3.27,0.93 7.73,3.04 9.94,4.72 0.53,0.4 0.99,0.73 1.48,1.06 l 0.4,0.43 c 1.06,1.15 2.01,2.11 2.41,2.11 0.36,0 2.21,-1.55 4.45,-3.46 0,0 0.37,-0.37 0.43,-0.37 2.68,-1.88 7.8,-4.91 11.39,-6.7 3.6,-1.81 6.8,-3.46 6.8,-3.46 v -0.83 -0.39 c 0,-0.37 0.4,-0.37 0.4,-0.4 0,-0.66 -0.73,-6.41 -1.62,-12.78 -1.52,-10.43 -1.45,-21.22 0,-26.37 0.4,-1.29 -0.43,-1.78 -3.66,-2.21 -5.78,-0.79 -14.1,-5.09 -19.94,-10.37 -5.65,-5.05 -7.72,-9.08 -7.03,-13.7 v -1.22 c 0.36,-0.66 0.43,-0.99 0,-1.05 0,-0.5 -0.5,-0.66 -1.36,-0.63 z m 72.58,1.88 0.33,0.3 c -5.85,0 -11.56,5.11 -11.56,10.33 0,2.77 -0.36,2.77 -4.42,2.77 -2.41,0 -5.87,0.53 -7.76,1.19 l -3.33,1.16 1.25,0.39 h -0.39 l 5.45,1.39 c 3,0.92 6.2,1.29 7.09,0.92 h 0.89 1.29 c 1.58,0.37 3.73,0.7 5.81,1.36 3.6,1.05 6.83,2.01 6.83,2.01 0.37,0 0.37,-0.4 0.37,-0.63 1.51,0 1.05,-0.92 -2.51,-2.44 -7,-2.94 -7.03,-9.67 0,-13.83 h 0.69 c 1.12,0 2.34,-1.69 2.51,-2.84 0,-0.53 0,-0.99 -0.4,-1.32 0,-0.4 -0.36,-0.4 -0.59,-0.4 -0.4,0 -0.89,-0.36 -1.55,-0.36 z m 343.73,0.63 0.13,0.1 c -0.59,0 -1.19,0.53 -2.15,1.82 -1.05,1.39 -2.34,4.32 -2.9,6.6 -0.76,2.97 -1.82,4.46 -3.86,5.41 l -2.81,1.29 4.23,3.7 3.27,2.77 0.92,0.93 -4.19,3.92 c -3.64,3.34 -4.13,3.87 -2.64,4.33 0,0.56 0.39,0.86 1.38,0.86 0.5,0 0.93,0 1.29,0.36 0.73,0.73 1.12,1.95 1.52,4.19 1.15,6.54 1.42,24.46 0.49,33.84 l -0.79,8.08 3.14,1.03 c 0.76,0.39 1.75,0.66 2.97,1.05 2.74,0.86 5.12,1.69 5.91,1.82 l 0.69,0.4 1.39,-1.52 c 0.85,-0.83 2.01,-1.98 3.17,-3.24 l 4.32,-4.72 -0.46,-0.36 v -0.4 -0.36 h -0.37 c -0.46,-0.53 -1.68,-1.32 -3.07,-1.98 l -3.3,-1.58 v -20.08 c 0,-14.39 0,-18.52 -0.99,-20.92 v -0.37 c -0.36,-0.69 -0.66,-1.22 -1.15,-1.91 l -2.38,-3.2 3.2,-3.37 c 3.17,-3.27 3.2,-3.37 1.16,-4.46 -1.29,-0.72 -2.71,-3.2 -3.7,-6.57 -0.86,-3 -2.28,-6.04 -3.17,-6.76 -0.49,-0.43 -0.86,-0.66 -1.25,-0.66 z m -88.6,0.43 -0.43,0.49 c -1.02,0.53 -2.61,2.11 -3.99,4.29 -3.93,6.24 -5.85,12.25 -5.85,18.45 0,2.35 0.4,4.56 0.76,6.64 0.5,1.98 1.19,3.86 2.15,5.55 5.44,9.24 12.9,14.36 31.65,21.65 13.93,5.45 23.21,10.3 26.71,14.06 0.73,0.73 1.25,1.52 1.68,2.35 0.93,2.6 0.53,5.57 -1.45,8.08 -1.12,1.39 -2.05,2.81 -2.05,3.17 0,0.5 0.4,0.73 0.76,0.76 0.99,0.66 2.08,0 4.82,-2.41 0.6,-0.49 1.16,-0.99 1.69,-1.55 6.7,-7 7.56,-11.88 3.4,-18.98 -3.2,-5.48 -10.47,-10.36 -24.79,-16.7 -21.33,-9.41 -30.51,-15.62 -34.4,-23.28 -3.43,-6.73 -3.6,-12.74 -0.46,-20.39 0.66,-1.59 0.39,-2.12 -0.46,-1.82 z m -587.736,0.1 -0.16,0.26 h -0.33 c -0.7,0 -2.5,2.01 -4.02,4.39 -9.08,14.36 -7.49,29.38 4.09,38.85 4.59,3.8 7.09,5.51 12.536,8.06 2.51,1.22 5.41,2.47 8.84,3.79 1.16,0.5 2.25,0.93 3.57,1.45 4.65,1.92 9.31,3.9 13,5.62 3.67,1.78 6.8,3.43 9.15,4.92 2.9,2.01 4.85,4.06 5.84,6.07 0.33,0.76 0.5,1.55 0.59,2.31 0.33,1.85 -0.46,3.66 -1.91,5.51 -1.09,1.39 -2.01,2.81 -2.01,3.17 0,0.53 0.42,0.73 1.08,0.66 0.96,0.66 2.48,-0.39 5.75,-3.5 1.98,-1.78 3.47,-3.6 4.49,-5.38 0,0 0,-0.4 0.33,-0.4 0,-0.36 0.33,-0.36 0.33,-0.56 0,0 0,-0.39 0.33,-0.39 3.96,-8.78 -2.48,-18.09 -18.49,-25.72 -30.4,-14.46 -31.216,-14.88 -36.926,-20.63 -4.59,-4.62 -7.22,-9.27 -7.92,-13.99 v -3.47 c 0,-1.55 0.33,-3.23 0.5,-4.69 0.33,-0.62 0.42,-1.25 0.68,-1.91 1.68,-3.99 1.82,-4.36 0.66,-4.42 z m 60.766,1.61 c -1.22,0 -1.94,1.22 -1.98,2.78 -0.36,0.66 -0.33,1.18 0.33,1.78 0,0.39 0,0.43 0.33,0.66 0.89,1.65 0.71,2.47 -1.04,4.29 -1.03,1.25 -1.79,2.58 -1.42,2.94 0.33,0.39 0.45,0.39 0.71,0.49 0.5,1.03 3.34,0.5 5.15,-1.12 1.98,-1.85 2.28,-5.48 0.76,-8.32 -0.76,-1.91 -1.85,-3.5 -2.77,-3.5 z m 587.54,0 c -1.09,0 -1.75,1.22 -1.75,2.74 -0.39,0.73 -0.36,1.26 0.4,1.88 0,0 0,0.4 0.36,0.6 0.89,1.65 0.69,2.47 -1.02,4.29 -1.06,1.25 -1.82,2.58 -1.42,2.94 0,0 0.36,0.39 0.59,0.39 0.4,0.86 1.98,0.83 3.6,0 0.83,0 1.55,-0.49 2.02,-0.95 0.59,-0.6 0.92,-1.56 1.09,-2.64 0.42,-1.56 0.36,-3.37 -0.4,-5.02 -0.63,-2.35 -1.85,-4.23 -3.27,-4.23 z m -625.06,2.25 c -0.33,0 -0.34,0 -0.34,0.39 0,0.7 0.86,1.82 2.28,3.01 1.22,1.32 5.44,3.96 10.1,6.27 3.2,1.65 6.11,3.14 7.99,4.19 0.36,0.4 0.5,0.43 0.37,0.43 -0.56,0.36 -2.98,0.83 -5.36,1.45 -1.38,0.37 -2.6,0.83 -3.39,1.19 h -0.33 c -0.39,0.4 -0.64,0.46 -0.64,0.66 0,0.66 2.22,1.36 5.35,1.85 2.12,0.53 4.89,0.86 6.51,0.86 h 1.15 c 1.39,0.39 1.63,0.99 1.63,3 0,1.65 0.42,3.34 1.01,3.77 0.33,0 0.37,0.36 0.53,0.36 l 0.33,0.4 c 0.73,0.36 1.68,0.59 2.15,0.59 0.62,0 0.76,-0.89 0.52,-2.31 v -0.53 c 0,-1.32 -2.11,-6.4 -4.65,-11.35 -1.65,-3.17 -2.74,-5.15 -3.43,-6.15 0,-0.36 0,-0.82 -0.33,-1.25 0,-0.46 -0.32,-0.59 -0.46,-0.36 l -0.33,-0.8 0.33,1.39 v 0.4 1.02 c 0.37,1.82 0.37,3.27 0,3.27 -0.95,0 -9.81,-5.32 -11.82,-7.13 -2.15,-1.98 -7.86,-4.59 -9.24,-4.42 z m 587.96,0 c -0.12,0 -0.15,0.1 -0.15,0.15 z m -0.15,0.15 -0.1,0.1 c 0,0 0.1,0 0.1,0 0,0 0,-0.1 0,-0.1 z m 0,0.1 c 0,0.24 0.27,0.67 0.52,1.28 1.16,2.11 3.93,4.32 8.85,6.86 1.19,0.7 2.41,1.32 3.7,1.98 3.53,1.69 5.87,2.91 7.26,3.73 v 0.4 c -0.53,0.36 -2.94,0.82 -5.28,1.42 -1.49,0.39 -2.81,0.89 -3.56,1.29 h -0.37 c -0.43,0.39 -0.66,0.42 -0.66,0.59 0,0.69 2.25,1.39 5.38,1.88 2.15,0.53 4.92,0.86 6.5,0.86 h 1.06 c 1.42,0.36 1.78,0.89 2.05,2.44 0,0.73 0,1.49 0.36,2.21 v 0.57 c 0,0.42 0,0.75 0.4,0.99 0.36,0.56 0.46,1.02 0.79,1.15 0.66,0.4 1.65,0.63 2.15,0.63 0.52,0 0.72,-0.66 0.59,-1.75 0.4,-1.88 -0.79,-5.68 -3.43,-10.4 -1.95,-3.47 -3.57,-7.03 -3.57,-7.86 0,-0.89 -0.53,-1.88 -1.12,-2.27 -0.36,-0.37 -0.63,0 -0.76,0.39 l -0.36,-0.72 0.36,1.25 v 0.46 0.4 0.79 c 0.39,1.75 0,3.14 -0.36,3.14 -0.43,0 -3.86,-2.08 -7.66,-4.66 -3.8,-2.57 -8.42,-5.31 -10.24,-6.1 -1.46,-0.64 -2.25,-0.96 -2.6,-0.95 z m -595.04,0.75 -1.25,2.8 c -1.09,2.35 -1.02,2.97 0.79,4.99 0.83,1.25 1.93,2.28 2.42,2.28 0.69,0 0.96,0 0.66,-1.09 0,-0.86 -0.34,-2.41 -1.13,-4.66 z m 587.81,1.25 c 0,0 0.1,0 0.1,0 v 0 z m 0.1,0 h -0.35 c 0,0 -0.37,0 -0.37,0.37 0,0 -0.36,0.39 -0.43,0.53 -1.71,2.44 -1.68,2.74 0.8,5.94 2.87,3.63 3.49,2.61 1.91,-3.07 -0.71,-2.5 -1.1,-3.61 -1.56,-3.77 z m -234.76,2.22 0.13,0.16 c -1.25,0 -0.39,3.07 1.32,3.96 1.49,0.83 2.64,0.96 3.37,0.4 h 1.42 l -0.89,-0.73 v -0.36 c 0.36,-0.86 -3.7,-3.43 -5.35,-3.43 z m -382.576,4.06 c 0,0 0.1,0 0.1,0 0,0 0.1,0 0.1,0 z m 0.1,0 c -0.71,0 -1.93,0.38 -3.83,1.14 l -2.84,1.16 1.33,0.36 h -0.33 l 2.5,0.69 c 0.56,0 1.02,0.37 1.42,0.37 1.35,0.39 1.55,0 2.01,-1.29 0.61,-1.57 0.68,-2.36 -0.26,-2.43 z m 587.796,0 c -0.73,0 -1.95,0.36 -3.89,1.09 l -2.84,1.15 1.35,0.37 h -0.36 l 2.47,0.69 c 1.29,0.36 2.25,0.36 2.84,0 0.56,-0.4 0.86,-0.79 1.06,-1.68 0,-0.83 0,-1.33 -0.73,-1.39 z m -377.49,3.69 -3.59,3.64 -3.63,3.59 -2.48,-2.9 c -3.27,-3.8 -9.21,-4.03 -13.9,-0.53 -4.02,2.97 -9.4,2.48 -15.21,-1.39 l -3.93,-2.27 -4.26,3.63 c -4.09,3.5 -15.41,9.57 -17.82,9.57 -0.86,0 -0.99,1.75 -0.4,6.34 0,1.05 0.33,2.21 0.36,3.43 v 7.2 c 0,7.62 0,15.28 -0.39,18.91 l -0.5,3.4 -0.39,2.35 5.04,1.28 c 2.81,0.73 7.4,2.88 10.21,4.72 l 2.5,1.72 c 1.06,1.15 2.25,2.11 2.61,2.11 0.4,0 2.25,-1.65 4.13,-3.6 1.28,-1.32 3.66,-3.16 6.17,-4.88 1.59,-1.02 3.17,-1.92 4.46,-2.58 2.67,-1.35 4.16,-2.34 4.62,-3.53 0.56,-0.53 0.89,-0.99 0.89,-1.28 0,-2.12 -4.95,-8.56 -6.04,-7.86 -0.5,0.36 -1.12,1.75 -1.52,3.27 -0.36,1.55 -1.39,3.79 -2.34,4.98 l -1.75,2.25 -6.84,-3.34 -6.86,-3.37 v -16.04 l -0.4,-15.84 3.01,1.85 c 1.05,0.62 2.74,1.12 4.62,1.51 1.38,0.4 2.7,0.57 4.02,0.53 2.71,0 4.99,0 4.99,-0.95 0,-0.5 2.11,-2.12 4.65,-3.64 l 3.14,-1.85 c 0.92,-0.36 1.72,-0.36 2.41,0 l 1.91,1.82 c 0.37,0.4 0.53,0.49 0.73,0.76 1.16,2.08 1.95,5.31 2.51,9.87 1.05,8.48 0.59,27.96 -0.79,35.55 -0.47,2.54 -0.37,3.3 0.89,3.3 h 0.39 c 0.73,0.36 3.14,0.96 5.55,1.78 h -0.36 c 2.47,0.83 5.01,1.66 5.57,1.66 0,0 0.4,0 0.53,-0.37 l 0.53,0.37 4.52,-4.92 4.46,-4.95 -3.63,-1.85 -3.63,-1.88 v -18.59 -18.65 l 2.08,0.86 c 0.85,0.72 2.31,1.19 3.86,1.42 0.99,0.36 1.91,0.36 2.8,0 1.75,0 3.24,-0.46 3.67,-1.19 0.39,-0.36 0.86,-0.93 1.68,-1.65 0.53,-0.46 1.09,-0.96 1.75,-1.49 0.36,-0.36 0.79,-0.62 1.19,-0.92 2.28,-1.72 3.47,-2.84 3.6,-3.5 l 1.91,-1.75 h -4.85 c -3.89,0 -5.61,-0.63 -8.68,-3.04 z m 663.16,0 -3.57,3.64 -3.6,3.59 -2.51,-2.9 c -3.3,-3.9 -9.21,-3.9 -14.32,0 -3.17,2.44 -3.9,2.61 -7.4,1.65 -2.18,-0.59 -5.61,-2.21 -7.65,-3.63 l -3.5,-2.21 -6.01,4.45 c -3.27,2.45 -8.49,5.55 -11.59,6.84 l -5.48,2.37 0.79,6.57 c 1.09,8.52 1.03,18.98 0,27.5 l -0.92,6.77 h 0.4 v 0.36 l 5.08,1.32 c 2.81,0.73 7.43,2.87 10.2,4.82 l 1.52,0.95 c 0.4,0.4 0.49,0.5 0.69,0.73 1.09,1.19 2.18,2.08 2.58,2.08 0.36,0 2.41,-1.85 4.58,-4.03 0.43,-0.39 0.93,-0.85 1.52,-1.28 2.31,-1.82 5.62,-4 8.22,-5.42 2.97,-1.65 4.69,-2.64 5.15,-3.79 0.53,-0.4 0.79,-0.8 0.79,-1.03 0,-1.65 -4.19,-7.88 -5.64,-8.38 -0.63,-0.36 -1.32,0.92 -1.72,2.51 -0.36,1.55 -1.52,4.03 -2.7,5.51 l -2.08,2.64 h -0.4 l -6.87,-3.43 c -6.2,-3.1 -7.09,-3.83 -6.6,-5.75 0.37,-1.22 0.6,-2.7 0.6,-3.36 0,-0.5 0.79,-0.6 2.47,-0.37 0.8,0.37 1.82,0.53 3.24,0.93 3.69,1.15 4.79,1.32 5.87,0.49 0.5,-0.36 0.99,-0.56 1.59,-1.09 l 2.01,-1.84 -2.18,-2.38 c -2.01,-2.08 -2.21,-2.77 -1.09,-5.41 0.37,-0.7 0.8,-1.75 1.59,-3.04 2.9,-4.06 6.9,-9.28 9.7,-12.54 1.59,-1.82 2.91,-3.01 3.27,-3.01 0.4,0 0.92,0.37 1.52,0.83 0.49,0.53 1.22,1.25 1.72,1.94 0.36,0.4 0.49,0.76 0.66,1.16 0.39,0.86 0.62,1.98 0.92,3.27 0.4,2.77 0.5,7.42 0.5,16.77 0,10.1 -0.4,20.36 -0.7,22.74 -0.59,3.43 -0.59,4.16 0.7,4.26 0.36,0.59 0.82,0.59 1.81,0.59 1.29,0 3.7,0.7 5.38,1.45 v 0.37 c 2.01,0.92 3.2,1.42 4.29,1.19 1.29,-0.4 2.61,-1.72 4.99,-4.53 l 4.12,-4.91 -0.72,-0.4 c -0.37,-0.89 -1.09,-1.58 -2.81,-2.38 l -3.56,-1.68 v -18.49 -18.18 -0.37 l 2.27,0.96 h 0.4 c 3.7,2.8 8.38,1.85 13.8,-2.71 2.67,-2.31 4.98,-4.49 4.98,-4.88 l -0.39,-0.37 1.42,-1.35 h -4.82 c -3.9,0 -5.58,-0.63 -8.69,-3.04 z m -758.65,0.14 -2.66,2.47 c -3.3,3.11 -11.62,8.06 -16.66,9.87 l -3.76,1.36 0.33,1.35 v 0.86 l 0.55,5.38 c 0.99,8.98 0.76,21.88 -0.49,28.49 l -0.86,4.65 h 0.62 v 0.4 l 5.12,1.25 c 1.95,0.43 4.16,1.32 6.17,2.31 0.43,0 0.8,0.4 1.16,0.59 1.15,0.63 2.18,1.32 3,1.92 0.56,0.46 1.14,0.82 1.66,1.19 0.72,0.62 1.25,1.25 1.58,1.78 0.56,0.99 1.09,1.06 2.42,0 0.86,0 1.36,-0.4 1.36,-1.06 v -0.39 c 1.52,-1.32 3.89,-3.07 5.54,-4 l 3.24,-1.81 2.21,1.98 c 0.99,1.22 2.94,2.87 4.55,3.86 1.22,0.93 2.25,1.55 2.61,1.55 l 0.73,0.43 3.43,-3.63 c 2.51,-2.38 5.28,-5.38 5.71,-6.44 1.65,-2.31 1.22,-3 -1.12,-3 -1.29,0 -3.07,-0.59 -3.96,-1.29 -3.1,-2.34 -5.74,-26.01 -4.09,-36.24 l 0.96,-5.71 -5.68,-1.56 c -3.11,-0.85 -7.4,-2.77 -9.58,-4.22 z m 127.55,0 -4.29,3.63 c -2.28,1.98 -7.17,5.08 -10.8,6.86 l -6.57,3.21 v 0.89 l -0.62,0.36 0.62,4.75 v 11.75 c 0,9.74 -0.39,18.89 -0.72,20.31 -0.37,1.18 -0.47,1.84 0,2.37 v 0.7 l 6.04,1.84 c 3.5,1.03 7.76,3.27 9.93,5.15 l 3.87,3.34 4.69,-4.36 c 2.57,-2.38 6.99,-5.51 9.86,-7 1.09,-0.56 2.02,-1.06 2.71,-1.55 4.16,-2.41 3.9,-3.93 0,-8.95 -2.61,-3.36 -3.37,-3.33 -4.19,0.37 -0.36,1.62 -1.55,4.13 -2.64,5.51 l -1.82,2.31 h -0.62 l -6.57,-3.33 c -6.67,-3.3 -7.03,-3.7 -7.03,-6.97 v -1.19 c 0,-1.61 0.52,-2.01 2.44,-1.58 l 2.64,0.79 c 0.49,0 0.96,0.4 1.45,0.4 3.5,1.12 4.52,1.15 6.11,0 0.96,-0.4 1.58,-0.73 1.91,-1.36 l 0.7,-0.46 -0.5,-0.53 c 0,-0.82 -0.56,-1.74 -1.62,-2.8 -2.77,-2.81 -1.45,-5.75 7.1,-16.21 2.18,-2.61 4.03,-4.95 5.32,-6.67 l 1.75,-2.21 v -0.4 c 0,-0.36 -1.92,-1.12 -4.26,-1.84 -2.38,-0.7 -6.74,-2.58 -9.68,-4.23 z m 217.45,0 -4.13,3.73 c -2.31,2.04 -7.49,5.24 -11.52,7.13 -7.36,3.4 -7.42,3.46 -6.7,6.7 1.03,4.49 0.99,26.5 0,32.25 l -0.82,4.69 h 0.46 c 0,0.36 0.5,0.59 1.09,0.59 2.91,0 12.81,4.19 15.55,6.6 0.72,0.66 1.48,1.26 2.11,1.72 v 0.36 c 0,1.32 1.75,1.26 2.51,0 v -0.36 c 1.15,-0.73 2.77,-1.85 4.55,-3.17 l 4.99,-3.8 3.83,3.37 0.39,0.43 c 2.25,2.14 4.62,3.93 5.29,3.93 0,0 0.52,-0.4 0.99,-0.5 1.55,-0.39 3.16,-2.01 5.97,-5.28 0.66,-0.73 1.19,-1.42 1.62,-2.01 l 2.34,-2.51 -0.53,-0.36 0.4,-0.4 h -0.4 c 0.4,-1.12 -0.49,-1.65 -2.18,-1.65 -1.28,0 -3.07,-0.79 -3.92,-1.78 -2.28,-2.58 -4.13,-18.59 -3.6,-30.87 l 0.46,-10.56 -5.61,-1.75 c -3.04,-0.96 -7.33,-2.87 -9.47,-4.23 z m 85.89,0 -2.67,2.47 c -3.67,3.4 -7.07,5.51 -7.99,5.15 h -0.36 v -0.4 c 0,-0.69 -0.76,-2.14 -1.65,-3.13 -2.18,-2.41 -10.1,-2.61 -13.27,-0.36 -2.38,1.65 -4.76,1.02 -7.3,-2.05 -1.22,-1.49 -1.78,-1.25 -5.22,2.11 l -3.86,3.8 -1.48,-1.95 c 0,-0.36 -0.37,-0.56 -0.63,-0.79 -3.83,-4.65 -10.86,-4.23 -16.24,0.99 l -2.84,2.67 1.09,0.6 c 0,0.36 0.43,0.46 1.02,0.46 l 1.13,0.59 c 0.43,0.37 0.82,0.43 1.22,0.66 0.59,0.47 1.19,0.96 1.78,1.55 0.5,0.53 0.86,0.99 1.19,1.52 1.68,3.14 2.01,8.65 2.01,20.6 0,9.18 -0.36,19.08 -0.72,21.99 -0.67,4.72 -0.57,5.31 1.02,5.31 0.39,0 0.76,0 1.32,0.36 0.63,0.4 1.26,0.5 1.98,0.7 2.21,0.62 4.59,1.35 5.98,1.75 l 2.14,0.82 1.22,-1.19 c 0.56,-0.43 1.16,-1.02 1.92,-1.85 l 0.46,-0.46 c 5.84,-5.58 6.07,-6.63 1.95,-8.61 l -3.54,-1.65 v -18.55 -18.52 l 3.7,1.55 c 4.29,1.78 8.22,1.09 10.27,-1.82 0.39,-0.59 0.82,-0.99 1.25,-1.19 0.43,0 0.76,0.4 1.32,1.13 1.03,3.82 2.54,16.6 2.54,22.77 0,4.82 0,4.82 -3.3,4.82 -3.26,0 -4.82,0.46 -4.75,1.35 h -0.53 l 0.4,0.4 c -0.66,0.5 0.39,1.22 3.99,3.43 l 3.2,2.02 c 1.92,1.55 1.98,2.61 1.98,6.34 0,5.44 -1.35,16.5 -2.44,20.86 0,0.72 -0.36,1.25 0,1.75 v 0.66 l 0.92,0.53 c 0.67,0.66 1.72,1.35 3.5,2.31 2.65,1.52 4.96,2.77 5.35,2.77 l 0.53,0.36 2.38,-2.34 c 0.46,-0.36 0.89,-0.76 1.38,-1.16 l 3.86,-3.26 -1.61,-3.9 c -0.93,-2.18 -1.32,-5.84 -1.32,-8.42 l 0.36,-4.49 2.31,2.15 2.31,2.15 3.93,-3.41 c 2.18,-1.84 7.43,-5.11 11.75,-7.22 l 7.76,-3.9 -0.66,-5.18 c -2.58,-19.97 -2.67,-22.78 -1.06,-33.57 0.5,-3.1 0.4,-3.2 -5.31,-4.79 -3.24,-0.92 -7.59,-2.84 -9.74,-4.29 z m 185.32,0 -4.69,4.09 -4.69,4.12 -1.68,-2.14 c -0.4,-0.73 -0.76,-1.35 -1.48,-1.85 -1.59,-1.81 -2.84,-2.11 -6.41,-2.11 -3.86,0 -5.38,0.56 -8.25,3.04 -1.78,1.51 -2.54,2.5 -2.54,3.1 -0.37,0.76 0,1.25 0.89,1.25 0.39,0 0.99,0.4 1.68,0.76 0.53,0.43 1.09,0.83 1.59,1.29 2.18,1.91 2.57,3.43 3.59,14.79 1.06,11.98 0.8,24.82 -0.72,32.08 -0.56,2.78 -0.36,3.27 1.22,3.27 h 0.82 c 1.19,0.4 3.21,1.03 5.55,1.78 l 5.51,1.79 2.78,-3.21 0.46,-0.46 c 5.87,-5.68 6.1,-6.76 1.98,-8.74 l -3.6,-1.69 v -19.08 c 0,-10.53 0.4,-19.14 0.76,-18.75 0.43,0.36 3.53,1.72 6.87,3.37 l 2.37,1.16 3.67,1.84 v 6.64 0.36 c -0.4,2.25 0,7.73 0,14 0,8.48 0.46,17.46 0.79,21.19 0.36,2.94 0.63,5.02 1.06,6.27 0,0.66 0.36,1.19 0.36,1.32 0.4,0.4 0.43,0.4 0.89,0 1.02,0 2.48,-1.62 4.72,-4.75 1.98,-2.74 4.55,-5.28 5.78,-5.68 1.58,-0.49 2.01,-1.25 1.58,-2.87 -1.65,-7.23 -2.87,-23.77 -2.47,-34.93 l 0.39,-9.47 0.5,-2.87 h -0.37 v -0.5 l -5.64,-1.78 c -3.07,-0.92 -7.33,-2.84 -9.47,-4.19 z m 50.6,0 -4.29,3.66 c -4.13,3.5 -15.45,9.57 -17.92,9.57 -0.93,0 -0.99,1.55 -0.4,5.85 1.02,7.49 1.02,19.41 0,26.57 l -0.86,5.61 h 0.4 c 0.36,0.49 0.89,0.63 2.28,0.63 h 0.62 l 2.08,0.49 c 0.53,0 0.9,0.37 1.39,0.37 1.92,0.62 4.13,1.48 5.71,2.31 1.39,0.79 2.11,1.58 1.62,2.11 -0.36,0.36 -3.93,1.42 -7.89,2.44 -4.13,1.02 -8.02,2.54 -8.81,3.34 -0.37,0.39 -0.5,0.56 -0.5,0.79 l -1.32,0.69 4.92,0.83 c 0.59,0 1.22,0.36 1.78,0.36 h 0.53 c 0.79,0.4 1.58,0.43 2.37,0.69 h 0.37 c 0.72,0.37 1.42,0.53 2.24,0.8 0.37,0 0.5,0.36 0.8,0.36 0.36,0 0.92,0.39 1.28,0.56 4.19,1.85 8.12,4.19 9.61,6.01 0.79,0.89 1.29,1.38 2.08,1.38 l 0.39,0.43 2.02,-1.25 c 1.09,-0.56 2.51,-1.45 4.69,-2.77 0.79,-0.5 1.32,-0.83 2.01,-1.29 0.69,-0.4 1.39,-0.76 1.98,-1.06 1.72,-0.86 4.13,-2.54 6.4,-4.29 3.93,-2.64 5.81,-4.29 6.9,-5.81 0,0 0.4,-0.36 0.4,-0.4 l 1.19,-1.09 -0.37,-0.72 c 0,-1.22 -0.72,-2.77 -2.6,-6.73 -0.99,-1.92 -1.69,-3.27 -2.18,-4.66 -0.4,-0.96 -0.5,-2.05 -0.73,-3.1 -0.39,-2.71 -0.4,-6.54 -0.4,-13.97 0,-8.21 0,-12.14 0.63,-14.82 0.36,-1.22 0.56,-2.37 1.09,-3.43 0,-0.4 0.36,-0.79 0.5,-1.22 1.28,-2.31 2.8,-4.46 3.27,-4.82 1.41,-0.92 1.22,-2.54 -0.37,-2.54 -0.79,0 -3.4,1.02 -6.01,2.31 -5.18,2.64 -7.98,2.21 -13.69,-2.01 z m 124.12,0.85 0.4,0.47 c -0.93,0 -2.22,0.79 -4.92,2.77 -2.71,1.98 -7.92,5.21 -11.69,7.29 l -6.8,3.8 v 3.2 c -0.39,1.36 -0.39,3.07 0,4.89 0.36,3.93 1.52,7.23 3.5,9.7 0.93,1.52 2.01,2.74 3.1,3.44 2.31,1.55 2.81,1.55 6.94,0 2.37,-0.9 5.34,-1.69 6.66,-1.32 1.72,0.39 3.4,2.01 4.69,4.45 0,0.4 0,0.43 0.4,0.69 1.15,2.45 0.36,6.01 1.88,8.32 v 2.74 l -5.22,-2.6 c -3.76,-2.02 -6.07,-2.41 -8.78,-2.02 -6.9,0.93 -14.29,3.2 -15.91,4.86 -0.69,0.62 -0.99,1.02 -0.89,1.32 l -0.89,0.75 4.72,0.66 c 2.18,0.37 4.36,0.93 6.5,1.79 1.75,0.82 3.57,1.81 5.15,2.77 1.32,0.99 2.45,2.01 3.24,3.1 l 2.18,2.91 6.2,-4.72 c 3.4,-2.61 8.91,-5.81 12.21,-7.13 l 5.88,-2.38 v -0.69 l -0.59,-7.3 c -0.7,-7.82 -2.31,-12.64 -5.71,-16.97 l -2.08,-2.7 -4.79,2.44 c -2.61,1.35 -5.84,2.71 -7.23,2.71 -3.4,0.39 -6.27,-4 -6.87,-10.3 l -0.39,-2.38 v -1.75 l 4.22,1.92 c 4.39,2.04 13.9,2.77 13.9,1.09 0,-0.5 2.48,-2.35 5.58,-4.1 3.04,-1.78 5.5,-3.53 5.5,-3.93 l -0.3,-0.39 v -0.66 l 0.3,-0.4 h -0.4 c -0.61,-0.49 -1.9,-0.76 -4.18,-0.76 -4.91,0 -10.89,-2.01 -13.79,-4.68 -0.63,-0.57 -1.13,-0.86 -1.72,-0.9 z m -508.78,2.78 c -0.43,0 -0.96,0.36 -1.75,1.09 -0.92,0.92 -1.68,2.08 -1.32,2.57 v 0.36 c 0.76,1.03 4.19,0.93 4.99,-0.36 0.39,-0.59 0,-1.75 -0.6,-2.54 -0.53,-0.76 -0.92,-1.09 -1.32,-1.09 z m -48.75,3.07 c -0.66,0 -1.36,0.46 -1.36,1.51 0,0.4 0,0.44 0.36,0.57 v 0.39 c 0,0.37 0,0.66 0.57,0.66 0.43,0 0.76,-0.36 0.92,-0.53 0.63,-0.36 0.82,-0.69 0.53,-1.45 -0.4,-0.56 -0.63,-0.92 -1.02,-0.96 z m 56.92,4.95 c -1.08,0 -1.7,0.8 -1.7,2.24 0,3.11 -3.47,8.72 -6.44,10.5 -1.65,1.02 -4.75,2.11 -6.86,2.51 -3.6,0.59 -4.89,2.18 -3.24,3.86 0.4,0.36 0.66,0.43 1.16,0.6 1.15,1.05 6.8,-0.4 11.02,-2.61 2.05,-0.96 4.13,-2.12 6.11,-3.4 0.59,-0.4 1.09,-0.53 1.45,-0.7 1.65,-0.69 3.11,-2.21 3.83,-3.49 1.42,-1.82 1.39,-3.96 -0.39,-3.3 -0.93,0.42 -1.32,0 -0.93,-1.79 0.36,-1.58 -0.39,-2.74 -1.72,-3.63 -0.88,-0.55 -1.7,-0.79 -2.29,-0.79 z m 417.36,1.22 -0.1,0.16 3.07,1.56 c 2.08,1.42 5.02,2.8 6.34,3.2 h 0.36 c 0.5,0.36 0.93,0.53 1.29,0.73 0.36,0.36 0.5,0.59 0.5,0.89 -0.4,0.66 -2.68,2.64 -5.62,4.45 l -5.28,3.37 v -3.83 c 0,-2.11 0,-5.55 -0.59,-7.66 l -0.4,-1.12 c 0,-0.73 0,-1.29 0.4,-1.75 z m -715.75,0.16 h 0.16 c 0,0 1.6,0.76 2.16,1.03 l 4,2.11 7.06,3.73 v 13.27 2.11 h -0.33 c 0,8.72 -0.33,15.85 -0.76,15.85 -0.39,0 -3.43,-1.59 -6.71,-3.43 l -5.94,-3.37 v -15.81 c 0,-8.68 0,-15.49 0.36,-15.49 z m 128.29,0 c 0,0 0.99,0.43 1.25,0.6 l 1.75,1.12 c 2.08,1.42 5.06,2.81 6.61,3.17 0.36,0 0.59,0 0.89,0.4 0.46,0.36 0.82,0.59 0.82,0.72 0,0.37 -2.44,2.25 -5.51,4.29 -2.94,1.95 -5.48,3.57 -5.97,3.63 0,-0.62 -0.37,-1.58 -0.47,-2.7 v -4.39 c 0,-3.7 0.4,-6.74 0.7,-6.8 z m 216.89,0 3.96,1.95 c 0.37,0.4 0.53,0.4 0.83,0.5 2.64,1.58 5.81,3.2 7.06,3.6 0.4,0 0.73,0.36 0.99,0.39 l 0.56,16.18 c 0.43,8.94 0.43,16.37 0.43,16.37 0,0 -2.84,-1.42 -6.14,-3.27 -3.23,-1.91 -6.3,-3.4 -6.8,-3.4 -0.49,0 -0.89,-7.26 -0.89,-16.14 z m 85.93,0 5.97,3.01 7.1,3.63 v 14 c 0,7.26 0.39,14.06 0.59,15.97 v 2.41 c -0.76,0.4 -2.84,-0.86 -7.36,-3.5 l -6.04,-3.56 -0.36,-3.93 v -12.11 z m 235.36,0 4.72,2.38 c 2.51,1.48 5.28,2.87 6.5,3.23 l 1.29,0.69 c 0.89,0.99 0.79,3.73 0.36,13.83 -0.36,7.23 -0.66,12.81 -0.66,13.37 h -0.73 c -0.59,-0.36 -2.51,-1.12 -5.48,-2.51 l -6,-2.84 v -2.17 -12.28 z m -494.77,0 6.27,3.12 c 1.32,0.73 2.61,1.36 3.63,1.79 l 2.54,1.32 c 0.9,1.18 0.99,4.55 1.26,16.5 0.36,8.91 0.36,15.91 0.36,16.31 v 0.36 c 0,0 -3,-1.78 -6.8,-3.89 l -6.86,-3.83 -0.4,-16.14 v -15.25 z m 382.1,2.76 0.13,0.23 c -0.56,0 -1.08,0 -1.48,0.4 -0.86,0.53 -0.63,0.99 0.73,1.52 2.57,1.05 3.23,1.09 3.82,0 0,0 0.4,0 0,-0.4 0.43,-0.79 -1.55,-1.68 -3.2,-1.75 z m -588.3,0.13 v 0.1 c -1.71,0 -2.24,0.86 -0.59,1.92 1.85,1.12 2.14,1.12 3.96,0 1.12,-0.73 0.89,-1.13 -1.32,-1.65 -0.79,-0.37 -1.49,-0.37 -2.05,-0.37 z m 278.51,17.04 0.36,0.16 c -0.56,0 -2.31,0.73 -4.19,1.78 -2.15,1.19 -4.92,2.18 -6.08,2.18 -2.41,0 -10.16,4.1 -10.16,5.35 0,0 0.39,0.36 1.05,0.43 0,0.89 7.2,0.39 10.17,-0.86 0.59,-0.4 0.92,0 1.12,0.46 0,0.37 -0.36,0.76 -0.46,1.32 -0.83,2.15 -0.66,3.6 0.73,6.51 v 0.36 c 0,0.4 0.36,0.56 0.43,0.83 1.55,2.97 2.54,3.23 3.23,0.85 0.4,-0.72 0.66,-1.81 0.73,-3.23 0.36,-1.45 1.09,-4.46 2.04,-8.06 0.43,-1.15 0.8,-2.57 0.93,-3.73 v -0.36 c 0.46,-1.95 0.82,-3.6 0.46,-3.99 z m -332.856,1.55 c -0.86,0 -1.83,0.39 -2.89,0.82 -1.38,0.76 -3.15,1.46 -3.95,1.46 -1.84,0 -8.15,4.25 -8.15,5.47 0,0.37 0.52,0.57 1.34,0.6 v 0.43 c 0.37,0.36 2.48,0 4.69,-0.47 0.83,-0.36 1.37,-0.36 1.89,-0.46 1.59,0 1.68,0.4 1.38,1.65 -0.33,1.06 -0.33,3.04 0,4.49 1.05,4.13 3.93,2.74 4.79,-2.27 0.33,-1.13 0.52,-2.45 0.92,-3.7 0.33,-0.5 0.33,-1.02 0.5,-1.49 0.33,-0.76 0.59,-1.45 0.85,-1.98 1.49,-2.84 1.49,-3.13 -0.33,-4.06 -0.46,-0.36 -0.92,-0.36 -1.44,-0.36 z m 587.486,0 c -0.72,0 -1.51,0.39 -2.64,0.96 -1.55,0.79 -3.4,1.41 -4.09,1.41 -1.65,0 -7.92,4.33 -7.92,5.48 0,0.4 0.36,0.5 0.99,0.6 v 0.36 c 0,0.63 4.16,0 7,-0.63 1.84,0 2.08,0.37 1.65,1.59 -0.37,1.02 -0.37,3.04 0,4.49 v -0.4 c 0,0.43 0.36,0.86 0.43,1.19 0,0.69 0.36,0.99 0.85,1.02 0.37,0.37 0.8,0.4 1.29,0.4 1.45,0 1.88,-0.73 1.88,-3.3 0,-1.85 0.93,-5.15 2.05,-7.33 1.88,-3.73 1.91,-4.09 0.36,-5.21 -0.62,-0.43 -1.19,-0.67 -1.88,-0.6 z m -208.58,2.51 h -0.17 -0.59 c -1.65,0.36 -2.84,2.01 -2.64,3.04 0,0.66 0.56,1.05 1.88,1.05 0.85,0.4 2.01,1.29 2.97,2.25 0.99,0.95 1.52,1.71 1.71,2.54 0.4,0.86 0,1.85 0,3.23 -0.36,1.79 -0.95,3.24 -1.88,4.33 -0.36,0.36 -0.39,0.49 -0.62,0.72 -3.6,3.47 -9.81,2.58 -13.74,-3.26 -1.81,-2.74 -3.56,-3.24 -3.56,-1.06 0,0.53 2.05,3.07 4.55,5.68 2.48,2.6 4.72,5.54 5.09,6.57 0.99,3.07 2.44,2.11 1.52,-1.03 l -0.66,-2.44 c 0.85,-0.4 2.83,-0.69 6.07,-0.99 2.61,-0.36 4.75,-0.36 6.53,0 5.12,0.5 7.73,2.67 8.03,6.67 0.36,2.71 -0.4,4.19 -1.85,5.68 -3.17,2.97 -6.93,3.63 -9.08,1.68 -2.38,-2.11 -3.33,-0.53 -1.98,1.75 0.4,0.79 1.15,1.88 2.21,2.64 1.85,1.29 3.14,1.68 5.22,1.22 2.77,0 5.81,-1.52 8.35,-3.99 l 0.36,-0.37 0.56,-0.59 c 1.75,-1.95 1.75,-2.21 0,-7.72 -1.98,-6.31 -4.78,-8.62 -10.53,-8.62 h -2.41 c -0.39,-0.4 0.37,-0.96 1.39,-2.44 0,-0.37 0.4,-0.4 0.49,-0.63 3.11,-3.7 3.31,-6.4 0.63,-10.7 -2.14,-3.56 -4.95,-5.41 -7.85,-5.24 z m 232.81,7.85 c 0.1,0 0.15,0 0.24,0.1 0.1,0 0.1,0 0.16,0 z m 0.24,0.1 c -0.48,0.1 -0.74,0.42 -0.77,0.89 v 0.56 c 0.4,1.26 1.19,3.17 2.88,5.85 v 0.39 c 0.59,1.09 1.25,2.15 1.95,3.24 0.56,1.09 0.92,1.98 0.92,2.24 0,0.5 0.79,1.36 1.78,1.92 2.64,1.48 2.64,1.45 2.64,-0.4 v -0.46 c 0.96,-0.4 2.84,-0.79 5.08,-1.09 3.17,-0.4 5.12,-0.76 4.69,-1.12 0.7,-0.37 0.37,-0.83 -0.99,-2.18 l -0.39,-0.36 c 0,-0.4 0,-0.4 -0.37,-0.4 -1.32,-1.42 -1.61,-1.35 -2.77,0.4 -1.58,2.14 -6.04,2.37 -8.42,0.39 -0.95,-0.76 -2.54,-3.27 -3.59,-5.68 -0.93,-2.07 -2.02,-3.79 -2.64,-4.19 z m -588.07,0 c -0.33,0 -0.46,0.46 -0.46,1.22 0,1.88 6.94,13.8 8.32,14.26 h 0.36 c 0.33,0 0.36,0.36 0.49,0.36 0.5,0 0.86,-0.36 0.53,-0.82 l 0.33,-0.4 c 0.76,-0.39 2.87,-0.92 5.48,-1.19 3.86,-0.46 5.25,-0.82 4.78,-1.28 0.53,-0.4 0,-0.83 -1.04,-2.05 l -1.89,-2.05 -2.64,2.08 c -4.03,3.17 -7.98,1.09 -11.15,-5.91 -1.19,-2.64 -2.39,-4.12 -3.05,-4.06 z m 745.52,8.52 h 0.36 c 0,0 0,0 0,0 z m 0.4,0 c 0.75,0.66 2.42,4.72 3.36,7.78 0,0.36 0.4,0.49 0.4,0.72 0.36,1.03 0.49,1.85 0.49,2.25 0,0.39 -0.39,0.76 -0.72,0.76 -1.39,0 -11.39,-6.47 -11.39,-7.17 0,0 0,-0.52 0.4,-0.52 h 0.36 c 1.84,0 5.62,-3.67 7.1,-3.82 z m -423.22,10.39 c -0.36,0.36 0,0.59 0.49,1.05 -1.09,0 -0.52,0 1.49,0.83 1.06,0.46 2.01,0.76 2.8,0.99 2.68,0.96 3.07,0.99 2.38,0.36 0.53,-0.36 0,-0.89 -2.18,-1.88 -1.91,-0.76 -3.86,-1.42 -4.72,-1.32 h 0.14 z m 243.51,6.44 c -0.48,0.1 -1.17,0.77 -1.72,1.31 -2.17,1.92 -6.46,2.15 -9.5,0.56 -1.62,-0.89 -2.41,-0.75 -3.7,0.57 -0.36,0.36 -0.49,0.46 -0.69,0.62 -0.37,0 -0.37,0.4 -0.37,0.46 -0.46,0.66 0,0.96 1.06,1.59 0,0 0.36,0 0.36,0.39 h 0.4 l 0.36,0.37 c 0.6,0.53 0.4,1.12 -1.22,2.94 -1.62,2.01 -1.78,2.97 -0.92,4.02 0,0.46 0.53,0.79 1.09,0.99 1.09,0.73 2.11,0 5.25,-3.63 2.01,-2.24 4.29,-4.06 5.05,-4.06 1.78,0 6.37,-4.78 5.51,-5.71 h -0.43 l -0.13,-0.29 c -0.1,-0.13 -0.24,-0.16 -0.4,-0.13 z m -587.636,0.13 c -0.53,0 -1.35,0.46 -2.11,1.18 -2.08,1.85 -6.43,2.18 -9.27,0.63 -2.21,-1.16 -5.06,-0.36 -5.06,1.52 0,0.36 0,0.4 0.33,0.63 0,0 0,0.39 0.33,0.39 0.33,0.37 0.71,0.73 1.16,0.89 h 0.34 c 0.33,0 0.39,0.4 0.56,0.4 0.36,0.43 0,1.12 -1.32,2.77 -1.62,2.05 -1.86,3.01 -0.97,4.06 1.62,1.92 2.49,1.69 5.13,-1.71 0.59,-0.57 1.08,-1.13 1.37,-1.65 1.39,-1.49 3.01,-2.65 4,-2.94 2.71,-0.7 7.21,-5.15 6.22,-6.14 h -0.41 z m 319.636,5.61 -0.1,0.26 c -1.26,0 -2.15,0.63 -2.15,1.49 v 0.39 c 0,0.56 0,1.03 0.43,1.03 h 0.4 c 0.36,0 0.62,-0.4 1.02,-0.47 0.39,-0.36 0.73,-0.53 0.89,-0.82 l 0.4,-0.4 c 1.05,-1.12 0.89,-1.48 -0.89,-1.48 z m -297.82,4.82 c -0.59,0 -1.8,1.32 -0.85,1.51 v 0.37 c 0,0.99 0.6,1.25 1.49,0.92 0.86,-0.39 1.51,-0.96 1.51,-1.35 0,-0.46 -0.65,-1.03 -1.51,-1.42 h -0.66 z m 587.74,0 c -0.59,0 -0.86,0.52 -0.86,1.61 0,1.16 0.53,2.05 1.22,1.69 1.88,-0.66 2.12,-2.51 0.37,-3.14 h -0.7 z m -274.97,1.28 0.3,0.5 c -0.7,0 -1.29,0.43 -1.72,1.52 -1.15,3.03 -0.56,5.51 2.05,8.25 0,0 0,0.39 0.39,0.39 0.96,1.03 1.62,1.66 1.85,2.12 0,0.36 -0.39,0.63 -0.69,1.09 h -0.37 c -1.05,0.39 -3.03,2.54 -4.42,4.88 -0.4,0.46 -0.59,0.89 -0.89,1.36 -1.12,1.22 -1.95,2.14 -3.5,3.79 -0.56,0.6 -1.06,1.16 -1.55,1.69 -1.49,1.22 -2.67,2.64 -2.67,3.33 v 0.36 0.4 c -0.4,0.66 -0.8,1.45 -1.42,1.95 -0.83,0.69 -1.52,1.68 -1.52,2.21 0,1.19 7.13,-1.85 9.6,-4.19 1.79,-1.69 2.28,-1.72 3.96,-0.47 1.99,1.42 5.42,1.69 8.52,1.13 3.3,-0.63 6.14,-2.15 6.14,-4.16 0,-0.7 -0.76,-1.95 -1.68,-2.71 -1.42,-1.19 -1.85,-1.06 -3.17,0.89 -1.68,2.61 -3.93,2.87 -7,0.73 -0.36,-0.37 -0.76,-0.66 -1.09,-1.12 0,-0.4 -0.36,-0.47 -0.49,-0.7 -0.9,-1.78 -1.03,-4.06 0,-5.61 0.72,-0.66 1.71,-1.29 2.84,-1.88 1.58,-0.6 3.86,-1.26 6.23,-1.88 3.9,-0.93 8.29,-2.35 9.74,-3.11 2.54,-1.22 2.81,-1.15 3.47,0.93 0.39,1.25 1.85,3.96 3.2,6.04 1.88,2.57 2.31,4.52 1.88,6.24 -0.36,1.42 0,4.16 1.29,6.7 l 1.91,4.26 1.75,-2.64 c 0.93,-1.69 1.65,-3.93 1.29,-6.18 -0.36,-3.53 -0.36,-3.53 3.47,-3.53 4.68,0 9.73,-2.01 12.27,-4.92 1.92,-1.98 1.99,-2.27 0.53,-3.89 0,0 0,-0.4 -0.36,-0.4 -1.55,-1.65 -1.78,-1.61 -4.52,1.16 -0.53,0.53 -1.06,0.92 -1.68,1.32 h -0.37 c -0.39,0 -0.39,0 -0.53,0.36 h -0.39 c -6.28,3.1 -15.55,-0.36 -17.07,-7.1 0,-0.72 -0.4,-1.28 -0.63,-1.75 0,-0.85 -0.36,-1.15 -1.15,-1.05 -1.06,-0.36 -2.61,0.39 -5.02,1.81 -1.42,0.89 -3.13,1.59 -4.39,1.88 -0.92,0 -1.82,0 -2.74,-0.36 -3.04,-0.95 -7.03,-3.96 -8.61,-6.76 -0.93,-1.65 -1.89,-2.65 -2.68,-2.88 z m 293.46,2.05 0.19,0.2 c -1.22,0 -1.35,0.69 -0.82,3.27 0.36,1.81 0.69,3.39 0.69,3.79 0,5.12 -2.9,8.09 -8.19,8.09 -2.24,0 -4.45,-0.66 -5.18,-1.52 -0.66,-0.82 -1.85,-1.52 -2.57,-1.52 -0.76,0 -1.82,-0.79 -2.38,-1.78 -1.02,-1.68 -1.25,-1.39 -0.99,-0.36 l -0.36,-0.4 0.49,0.96 c 0.37,1.12 0.93,2.7 1.75,4.32 1.12,2.18 1.85,5.25 1.85,6.74 0,1.55 0.36,4.55 1.09,6.7 0.36,1.02 0.66,1.75 1.02,2.24 l 0.5,1.65 0.4,-0.95 c 0.75,0 1.32,-1.26 1.55,-3.87 0.66,-2.01 0.66,-3.63 0,-5.21 v -2.28 h 3.92 c 2.98,0 4.43,-0.66 7.2,-3.3 0.83,-0.73 1.55,-1.45 2.18,-2.31 1.85,-2.11 2.34,-3.53 2.38,-6.04 0,-4.29 -2.31,-8.42 -4.72,-8.42 z m -586.98,0.2 c -0.4,0 -0.7,0 -0.93,0.43 -0.33,0 -0.49,0 -0.66,0.39 0,0 0,0.86 0.33,1.79 v 3.03 c 0.5,4.66 0.33,5.78 -1.58,7.59 -2.58,2.58 -9.31,2.98 -11.26,0.67 -0.69,-0.83 -1.85,-1.52 -2.57,-1.52 -0.76,0 -1.82,-0.8 -2.38,-1.79 -1.06,-1.78 -1.29,-1.42 -0.96,0 h -0.33 l 0.33,0.56 c 0.33,1.23 0.99,2.94 1.85,4.63 1.16,2.5 1.92,5.08 1.52,6.47 -0.33,1.32 0,3.4 0.39,4.68 0.5,1.29 1.19,3.24 1.59,4.36 0.46,1.55 0.74,1.65 1.56,0.36 0.53,-0.36 0.95,-1.32 1.21,-2.6 0.5,-1.52 0.84,-3.4 0.54,-4.79 -0.33,-3.07 -0.34,-3.37 2.5,-3.4 h 2.42 c 7.52,-1.19 13.14,-11.35 9.08,-17.59 -1.12,-1.65 -2.03,-2.55 -2.72,-2.68 z m 340.46,0 c -1.65,0 -2.21,0 -2.08,0.59 0,0.37 0,0.6 0.56,1.29 0.36,0.4 0.73,0.63 1.09,0.79 0,0.37 0,0.4 0.4,0.4 0,0 0.36,0 0.42,-0.36 h 0.4 c 0.66,0 1.19,-0.6 1.52,-1.52 0.36,-0.73 -0.66,-1.19 -2.31,-1.19 z m -374.27,5.64 c -0.69,0 -1.14,0.53 -1.97,1.42 -0.916,1.06 -1.416,2.35 -1.086,2.91 0.37,0.56 0,1.35 -0.75,1.81 -0.8,0.46 -2.35,2.68 -3.5,4.95 -1.16,2.25 -2.81,4.72 -3.73,5.48 -1.26,1.06 -5.49,8.35 -5.56,9.68 0,0.99 4.46,-1.39 6.83,-3.74 2.61,-2.57 3.17,-2.73 4.26,-1.45 0.86,1.06 2.25,1.52 3.796,1.59 2.11,0.39 4.42,-0.37 5.87,-1.49 1.85,-1.12 2.88,-2.74 1.85,-4.36 -1.58,-2.54 -3.17,-2.7 -3.93,-0.39 -0.82,2.57 -2.97,2.61 -5.566,0 -0.96,-0.92 -1.56,-1.85 -1.89,-2.74 0,-0.4 -0.35,-0.66 0,-0.73 v -0.49 -0.6 c 0,-0.39 0,-0.76 0.34,-1.12 1.06,-1.95 4.056,-3.76 9.076,-5.38 6.37,-2.08 8.67,-3.53 7.52,-4.72 -0.33,-0.4 -1.46,0 -2.58,0.79 -1.75,1.06 -2.67,1.03 -5.58,-0.39 -1.65,-0.73 -2.54,-1.06 -3.23,-1.03 z m 587.78,0 c -0.73,0 -1.19,0.53 -2.02,1.42 -1.05,1.06 -1.45,2.35 -1.05,2.91 0.36,0.56 0,1.38 -0.8,1.85 -0.75,0.42 -2.34,2.64 -3.5,4.91 -1.15,2.25 -2.8,4.72 -3.73,5.48 -0.89,0.76 -2.37,2.97 -3.3,4.99 -0.78,1.76 -1.44,3.38 -1.84,4.02 0.11,0.18 0.3,0.35 0.62,0.27 0,1.09 2.78,-0.36 5.45,-3.04 3.04,-3.1 3.3,-3.17 4.95,-1.52 3.07,3.21 9.24,1.59 10.76,-1.52 0.63,-0.62 1.06,-1.35 1.06,-2.14 0,-1.72 -3.27,-4.32 -3.73,-3.04 -1.55,4.56 -5.22,4.46 -7.26,0 -0.7,-1.45 -0.93,-2.7 -0.73,-3.73 0.89,-1.71 3.2,-3.2 7.23,-4.88 1.45,-0.53 2.77,-1.03 3.89,-1.46 0.37,0 0.53,0 0.83,-0.39 2.64,-0.89 4.78,-2.18 4.78,-2.81 0,-1.12 -0.59,-1.12 -2.97,0.4 -1.55,0.99 -2.64,0.89 -5.44,-0.46 -1.62,-0.73 -2.54,-1.06 -3.2,-1.03 z m -16.24,25.58 c -0.17,-0.27 -0.17,-0.57 -0.17,-0.16 v 0.43 c 0,-0.1 0.11,-0.18 0.17,-0.27 z">
   </path>
</svg>
